<svg width="3072" height="1176" xmlns="http://www.w3.org/2000/svg" xmlns:xlink="http://www.w3.org/1999/xlink" overflow="hidden"><defs><clipPath id="clip0"><rect x="358" y="738" width="3072" height="1176"/></clipPath><clipPath id="clip1"><rect x="376" y="1145" width="247" height="247"/></clipPath><clipPath id="clip2"><rect x="376" y="1145" width="247" height="247"/></clipPath><clipPath id="clip3"><rect x="376" y="1145" width="247" height="247"/></clipPath><clipPath id="clip4"><rect x="1141" y="1145" width="249" height="247"/></clipPath><clipPath id="clip5"><rect x="1141" y="1145" width="249" height="247"/></clipPath><clipPath id="clip6"><rect x="1141" y="1145" width="249" height="247"/></clipPath><clipPath id="clip7"><rect x="1974" y="1145" width="248" height="247"/></clipPath><clipPath id="clip8"><rect x="1974" y="1145" width="248" height="247"/></clipPath><clipPath id="clip9"><rect x="1974" y="1145" width="248" height="247"/></clipPath><clipPath id="clip10"><rect x="1975" y="738" width="251" height="249"/></clipPath><clipPath id="clip11"><rect x="1975" y="738" width="251" height="249"/></clipPath><clipPath id="clip12"><rect x="1975" y="738" width="251" height="249"/></clipPath><clipPath id="clip13"><rect x="2467" y="1145" width="247" height="247"/></clipPath><clipPath id="clip14"><rect x="2467" y="1145" width="247" height="247"/></clipPath><clipPath id="clip15"><rect x="2467" y="1145" width="247" height="247"/></clipPath><clipPath id="clip16"><rect x="3041" y="1145" width="247" height="247"/></clipPath><clipPath id="clip17"><rect x="3041" y="1145" width="247" height="247"/></clipPath><clipPath id="clip18"><rect x="3041" y="1145" width="247" height="247"/></clipPath><clipPath id="clip19"><rect x="1560" y="1145" width="249" height="247"/></clipPath><clipPath id="clip20"><rect x="1560" y="1145" width="249" height="247"/></clipPath><clipPath id="clip21"><rect x="1560" y="1145" width="249" height="247"/></clipPath><clipPath id="clip22"><rect x="750" y="1145" width="247" height="247"/></clipPath><clipPath id="clip23"><rect x="750" y="1145" width="247" height="247"/></clipPath><clipPath id="clip24"><rect x="750" y="1145" width="247" height="247"/></clipPath></defs><g clip-path="url(#clip0)" transform="translate(-358 -738)"><text font-family="Arial,Arial_MSFontService,sans-serif" font-weight="400" font-size="83" transform="matrix(1 0 0 1 412.458 1495)">Data <tspan font-size="83" x="-4.58334" y="99">store</tspan></text><g clip-path="url(#clip1)"><g clip-path="url(#clip2)"><g clip-path="url(#clip3)"><path d="M574.115 1348.26 574.115 1193.89C574.115 1178.84 535.673 1170.73 499.5 1170.73 463.327 1170.73 424.885 1178.84 424.885 1193.89L424.885 1348.26C424.885 1363.3 463.327 1371.42 499.5 1371.42 535.673 1371.42 574.115 1363.3 574.115 1348.26ZM499.5 1175.88C539.259 1175.88 568.969 1185.39 568.969 1193.89 568.969 1202.38 539.259 1211.9 499.5 1211.9 459.741 1211.9 430.031 1202.38 430.031 1193.89 430.031 1185.39 459.741 1175.88 499.5 1175.88ZM430.031 1202.79C441.684 1212.1 471.283 1217.04 499.5 1217.04 527.717 1217.04 557.316 1212.1 568.969 1202.79L568.969 1245.34C568.969 1253.83 539.259 1263.35 499.5 1263.35 459.741 1263.35 430.031 1253.83 430.031 1245.34ZM430.031 1254.25C441.684 1263.56 471.283 1268.5 499.5 1268.5 527.717 1268.5 557.316 1263.56 568.969 1254.25L568.969 1296.8C568.969 1305.29 539.259 1314.81 499.5 1314.81 459.741 1314.81 430.031 1305.29 430.031 1296.8ZM430.031 1348.26 430.031 1305.7C441.684 1315.02 471.283 1319.96 499.5 1319.96 527.717 1319.96 557.316 1315.02 568.969 1305.7L568.969 1348.26C568.969 1356.75 539.259 1366.27 499.5 1366.27 459.741 1366.27 430.031 1356.75 430.031 1348.26Z"/><path d="M556.104 1237.62C556.104 1240.47 553.8 1242.77 550.958 1242.77 548.116 1242.77 545.812 1240.47 545.812 1237.62 545.812 1234.78 548.116 1232.48 550.958 1232.48 553.8 1232.48 556.104 1234.78 556.104 1237.62Z"/><path d="M556.104 1289.08C556.104 1291.93 553.8 1294.23 550.958 1294.23 548.116 1294.23 545.812 1291.93 545.812 1289.08 545.812 1286.24 548.116 1283.94 550.958 1283.94 553.8 1283.94 556.104 1286.24 556.104 1289.08Z"/><path d="M556.104 1340.54C556.104 1343.38 553.8 1345.69 550.958 1345.69 548.116 1345.69 545.812 1343.38 545.812 1340.54 545.812 1337.7 548.116 1335.4 550.958 1335.4 553.8 1335.4 556.104 1337.7 556.104 1340.54Z"/></g></g></g><text font-family="Arial,Arial_MSFontService,sans-serif" font-weight="400" font-size="83" transform="matrix(1 0 0 1 1155.84 1495)">SPSS<tspan font-size="83" x="9.16663" y="99">Excel</tspan></text><g clip-path="url(#clip4)"><g clip-path="url(#clip5)"><g clip-path="url(#clip6)"><path d="M186.536 162.351C182.42 158.234 176.245 156.176 170.584 157.462L159.006 146.142C169.298 132.762 174.958 116.296 174.958 99.3145 175.215 56.3468 140.481 21.6125 97.7708 21.3552 55.0604 21.0979 20.326 55.8322 20.0687 98.5426 19.8114 141.253 54.5458 175.987 97.2562 176.245 114.237 176.245 130.961 170.584 144.598 160.293L155.919 171.613C154.889 177.531 156.691 183.449 160.807 187.823L192.969 219.984C199.915 226.931 211.494 226.931 218.44 219.984 225.387 213.037 225.387 201.459 218.44 194.512L186.536 162.351ZM97.7708 160.807C63.551 160.807 36.0208 133.277 36.0208 99.0572 36.0208 64.8374 63.551 37.3073 97.7708 37.3073 131.991 37.3073 159.521 64.8374 159.521 99.0572 159.521 133.02 131.733 160.807 97.7708 160.807Z" transform="matrix(1 0 0 1 1142 1145)"/><path d="M153.088 95.1978 138.423 95.1978C137.136 95.4551 135.85 96.227 135.078 97.2562L125.301 107.805 117.068 79.2458C116.296 76.9301 113.723 75.3864 111.407 76.1583 110.121 76.6729 108.834 77.4447 108.32 78.9885L92.8822 119.898 82.3333 63.2937C81.8187 60.7208 79.5031 59.177 77.1874 59.6916 75.6437 59.9489 74.3572 61.2354 73.5854 62.7791L62.5218 95.1978 42.4531 95.1978 42.4531 105.49 65.8666 105.49C67.9249 105.232 69.726 103.688 70.2406 101.63L76.6729 82.076 86.9645 137.394C87.2218 139.452 89.0228 140.996 91.0812 140.996L91.5958 140.996C93.3968 140.996 95.1978 139.967 95.9697 138.166L112.436 94.9406 119.126 118.097C119.898 120.412 122.213 121.956 124.786 121.184 125.558 120.927 126.33 120.412 126.845 119.898L140.738 105.49 153.346 105.49 153.346 95.1978Z" transform="matrix(1 0 0 1 1142 1145)"/></g></g></g><g clip-path="url(#clip7)"><g clip-path="url(#clip8)"><g clip-path="url(#clip9)"><path d="M59.177 210.979 59.177 36.0208 131.219 36.0208 131.219 90.052 187.823 90.052 187.823 210.979 59.177 210.979ZM146.656 42.4531 178.818 74.6145 146.656 74.6145 146.656 42.4531ZM146.656 20.5833 43.7395 20.5833 43.7395 226.416 203.26 226.416 203.26 77.1874 146.656 20.5833Z" transform="matrix(1 0 0 1 1975 1145)"/></g></g></g><text font-family="Arial,Arial_MSFontService,sans-serif" font-weight="400" font-size="83" transform="matrix(1 0 0 1 2001.1 1538)">Word<tspan font-size="83" x="270.768" y="-688">Email for Quality </tspan><tspan font-size="83" x="270.768" y="-589">Assurance</tspan></text><g clip-path="url(#clip10)"><g clip-path="url(#clip11)"><g clip-path="url(#clip12)"><path d="M212.687 216.837 160.812 167.556 212.687 118.275 212.687 216.837ZM44.6125 223.062 95.9687 174.559 99.6 171.187C113.606 157.959 135.653 157.959 149.659 171.187L153.291 174.559 204.387 223.062 44.6125 223.062ZM36.3125 118.016 88.1875 167.297 36.3125 216.578 36.3125 118.016ZM72.625 51.875 176.375 51.875 176.375 138.247 153.031 160.553C136.172 147.584 112.828 147.584 95.9687 160.553L72.625 138.247 72.625 51.875ZM191.937 58.8781 191.937 36.3125 155.625 36.3125 124.5 10.375 93.3749 36.3125 57.0625 36.3125 57.0625 59.1375 20.75 93.6343 20.75 238.625 228.25 238.625 228.25 93.6343 191.937 58.8781Z" transform="matrix(1 0 0 1 1976 738)"/><path d="M124.5 109.716C119.831 109.716 116.2 105.825 116.2 101.416 116.2 96.7468 120.091 93.1156 124.5 93.1156 129.169 93.1156 132.8 96.7468 132.8 101.416 132.8 106.084 129.169 109.716 124.5 109.716ZM124.5 134.875C130.466 134.875 136.172 133.319 141.359 130.725 143.434 129.428 144.212 126.834 143.175 124.759 141.878 122.684 139.284 121.906 137.209 122.944 133.319 125.019 128.909 126.056 124.5 126.056 110.753 126.056 99.3406 114.644 99.6 100.897 99.6 87.1499 111.012 75.7375 124.759 75.7375 138.506 75.7375 149.919 86.8906 149.919 100.897L149.919 109.197C145.25 109.197 141.619 105.566 141.619 100.897 141.619 92.5968 135.912 85.5937 127.872 84.0375 119.831 82.4812 111.791 86.8906 108.937 94.4125 106.084 101.934 108.937 110.753 115.941 114.903 122.944 119.053 132.022 117.756 137.469 111.531 140.581 115.162 145.25 117.237 150.178 117.237 154.847 117.237 158.478 113.606 158.478 108.937L158.478 100.637C158.478 81.9625 143.434 66.9187 124.759 66.9187 106.084 66.9187 91.0406 81.9625 91.0406 100.637 90.7812 119.572 105.825 134.616 124.5 134.875Z" transform="matrix(1 0 0 1 1976 738)"/></g></g></g><text font-family="Arial,Arial_MSFontService,sans-serif" font-weight="400" font-size="83" transform="matrix(1 0 0 1 2396.79 1538)">Markdown</text><g clip-path="url(#clip13)"><g clip-path="url(#clip14)"><g clip-path="url(#clip15)"><path d="M2526.18 1181.02 2654.82 1181.02 2654.82 1355.98 2526.18 1355.98 2526.18 1181.02ZM2510.74 1371.42 2670.26 1371.42 2670.26 1165.58 2510.74 1165.58 2510.74 1371.42Z"/><path d="M2544.19 1196.46 2564.77 1196.46 2564.77 1217.04 2544.19 1217.04Z"/><path d="M2585.35 1201.6 2636.81 1201.6 2636.81 1211.9 2585.35 1211.9Z"/><path d="M2544.19 1237.62 2564.77 1237.62 2564.77 1258.21 2544.19 1258.21Z"/><path d="M2585.35 1242.77 2636.81 1242.77 2636.81 1253.06 2585.35 1253.06Z"/><path d="M2544.19 1278.79 2564.77 1278.79 2564.77 1299.37 2544.19 1299.37Z"/><path d="M2585.35 1283.94 2636.81 1283.94 2636.81 1294.23 2585.35 1294.23Z"/><path d="M2544.19 1319.96 2564.77 1319.96 2564.77 1340.54 2544.19 1340.54Z"/><path d="M2585.35 1325.1 2636.81 1325.1 2636.81 1335.4 2585.35 1335.4Z"/></g></g></g><g clip-path="url(#clip16)"><g clip-path="url(#clip17)"><g clip-path="url(#clip18)"><path d="M3236.54 1299.37 3092.46 1299.37 3092.46 1211.9 3236.54 1211.9ZM3251.98 1206.75C3251.98 1201.07 3247.37 1196.46 3241.69 1196.46L3087.31 1196.46C3081.63 1196.46 3077.02 1201.07 3077.02 1206.75L3077.02 1314.81 3251.98 1314.81Z"/><path d="M3179.94 1325.1 3179.94 1327.68C3180.03 1329.01 3179.02 1330.16 3177.68 1330.25 3177.58 1330.26 3177.47 1330.26 3177.36 1330.25L3151.64 1330.25C3150.3 1330.34 3149.15 1329.33 3149.06 1328 3149.06 1327.89 3149.06 1327.78 3149.06 1327.68L3149.06 1325.1 3046.15 1325.1 3046.15 1330.25C3046.15 1335.93 3050.75 1340.54 3056.44 1340.54L3272.56 1340.54C3278.25 1340.54 3282.85 1335.93 3282.85 1330.25L3282.85 1325.1Z"/><path d="M3164.5 1219.61C3144.61 1219.61 3128.48 1235.74 3128.48 1255.64 3128.48 1275.53 3144.61 1291.66 3164.5 1291.66 3184.39 1291.66 3200.52 1275.53 3200.52 1255.64 3200.52 1235.74 3184.39 1219.61 3164.5 1219.61ZM3167.07 1258.21 3178.88 1258.21C3177.54 1267.08 3173.4 1275.29 3167.07 1281.65ZM3167.07 1253.06 3167.07 1229.6C3173.41 1235.96 3177.54 1244.18 3178.88 1253.06ZM3161.93 1253.06 3150.5 1253.06C3151.78 1244.33 3155.78 1236.23 3161.93 1229.91ZM3161.93 1258.21 3161.93 1281.36C3155.79 1275.03 3151.8 1266.93 3150.5 1258.21ZM3145.33 1253.06 3134.32 1253.06C3135.46 1239.59 3145.41 1228.5 3158.69 1225.92 3151.35 1233.24 3146.65 1242.78 3145.33 1253.06ZM3145.33 1258.21C3146.65 1268.5 3151.37 1278.06 3158.74 1285.38 3145.44 1282.79 3135.47 1271.7 3134.32 1258.21ZM3184.05 1258.21 3194.68 1258.21C3193.55 1271.53 3183.81 1282.54 3170.73 1285.28 3178.06 1277.99 3182.75 1268.46 3184.05 1258.21ZM3184.05 1253.06C3182.74 1242.84 3178.08 1233.33 3170.8 1226.02 3183.85 1228.79 3193.55 1239.77 3194.68 1253.06Z"/></g></g></g><text font-family="Arial,Arial_MSFontService,sans-serif" font-weight="400" font-size="83" transform="matrix(1 0 0 1 2972.18 1489)">Publish on <tspan font-size="83" x="51.1731" y="99">Gov.UK</tspan></text><path d="M2244 1506.85 2341.02 1507.23 2341.01 1509.52 2244 1509.15ZM2336.48 1494.61 2363.93 1508.47 2336.37 1522.11Z" fill="#52307F"/><path d="M2817.01 1507.85 2914.02 1508.46 2914 1510.75 2816.99 1510.15ZM2909.51 1495.83 2936.93 1509.75 2909.34 1523.33Z" fill="#52307F"/><path d="M1.14579-0.0102327 2.35186 135.037 0.0602864 135.058-1.14579 0.0102327ZM14.9146 130.342 1.41073 157.963-12.5843 130.587Z" fill="#52307F" transform="matrix(1 0 0 -1 2099 1144.96)"/><path d="M0-1.14583 710.934-1.14583 710.934 259.722 708.643 259.722 708.643 0 709.788 1.14583 0 1.14583ZM723.538 255.139 709.788 282.639 696.038 255.139Z" fill="#52307F" transform="matrix(-1 1.22465e-16 1.22465e-16 1 1975.79 862)"/><text font-family="Arial,Arial_MSFontService,sans-serif" font-weight="400" font-size="83" transform="matrix(1 0 0 1 1586.03 1511)">Table<tspan font-size="83" x="-16.0303" y="222">Graph</tspan></text><g clip-path="url(#clip19)"><g clip-path="url(#clip20)"><g clip-path="url(#clip21)"><path d="M51.4583 36.0208 36.0208 36.0208 36.0208 210.979 210.979 210.979 210.979 195.542 51.4583 195.542 51.4583 36.0208Z" transform="matrix(1 0 0 1 1561 1145)"/><path d="M87.4791 172.385C87.4791 178.069 82.8714 182.677 77.1874 182.677 71.5035 182.677 66.8958 178.069 66.8958 172.385 66.8958 166.701 71.5035 162.094 77.1874 162.094 82.8714 162.094 87.4791 166.701 87.4791 172.385Z" transform="matrix(1 0 0 1 1561 1145)"/><path d="M97.7708 138.937C97.7708 144.621 93.163 149.229 87.4791 149.229 81.7952 149.229 77.1874 144.621 77.1874 138.937 77.1874 133.253 81.7952 128.646 87.4791 128.646 93.163 128.646 97.7708 133.253 97.7708 138.937Z" transform="matrix(1 0 0 1 1561 1145)"/><path d="M133.792 144.083C133.792 149.767 129.184 154.375 123.5 154.375 117.816 154.375 113.208 149.767 113.208 144.083 113.208 138.399 117.816 133.792 123.5 133.792 129.184 133.792 133.792 138.399 133.792 144.083Z" transform="matrix(1 0 0 1 1561 1145)"/><path d="M133.792 108.062C133.792 113.746 129.184 118.354 123.5 118.354 117.816 118.354 113.208 113.746 113.208 108.062 113.208 102.378 117.816 97.7708 123.5 97.7708 129.184 97.7708 133.792 102.378 133.792 108.062Z" transform="matrix(1 0 0 1 1561 1145)"/><path d="M167.239 97.7708C167.239 103.455 162.632 108.062 156.948 108.062 151.264 108.062 146.656 103.455 146.656 97.7708 146.656 92.0868 151.264 87.4791 156.948 87.4791 162.632 87.4791 167.239 92.0868 167.239 97.7708Z" transform="matrix(1 0 0 1 1561 1145)"/><path d="M203.26 97.7708C203.26 103.455 198.653 108.062 192.969 108.062 187.285 108.062 182.677 103.455 182.677 97.7708 182.677 92.0868 187.285 87.4791 192.969 87.4791 198.653 87.4791 203.26 92.0868 203.26 97.7708Z" transform="matrix(1 0 0 1 1561 1145)"/><path d="M203.26 59.177C203.26 64.861 198.653 69.4687 192.969 69.4687 187.285 69.4687 182.677 64.861 182.677 59.177 182.677 53.4931 187.285 48.8854 192.969 48.8854 198.653 48.8854 203.26 53.4931 203.26 59.177Z" transform="matrix(1 0 0 1 1561 1145)"/></g></g></g><text font-family="Arial,Arial_MSFontService,sans-serif" font-weight="400" font-size="83" transform="matrix(1 0 0 1 1570 1845)">Graph<tspan font-size="83" x="16.0303" y="-223">Table</tspan></text><path d="M3.40236e-06-1.14583 98.6233-1.14554 98.6233 1.14613-3.40236e-06 1.14583ZM94.0399-13.7497 121.54 0.000360892 94.0399 13.7503Z" fill="#52307F" transform="matrix(1 0 0 -1 630 1515)"/><path d="M995 1513.85 1093.62 1513.85 1093.62 1516.15 995 1516.15ZM1089.04 1501.25 1116.54 1515 1089.04 1528.75Z" fill="#52307F"/><text font-family="Arial,Arial_MSFontService,sans-serif" font-weight="400" font-size="83" transform="matrix(1 0 0 1 788.285 1545)">CSV</text><g clip-path="url(#clip22)"><g clip-path="url(#clip23)"><g clip-path="url(#clip24)"><path d="M837.479 1206.75 852.917 1206.75 852.917 1245.34 837.479 1245.34Z"/><path d="M919.812 1255.64 827.188 1255.64 827.188 1196.46 919.812 1196.46 919.812 1255.64ZM873.5 1322.53C859.349 1322.53 847.771 1310.95 847.771 1296.8 847.771 1282.65 859.349 1271.07 873.5 1271.07 887.651 1271.07 899.229 1282.65 899.229 1296.8 899.229 1310.95 887.651 1322.53 873.5 1322.53ZM950.687 1181.02 919.812 1181.02 827.188 1181.02 811.75 1181.02 786.021 1206.75 786.021 1345.69C786.021 1351.35 790.652 1355.98 796.312 1355.98L950.687 1355.98C956.348 1355.98 960.979 1351.35 960.979 1345.69L960.979 1191.31C960.979 1185.65 956.348 1181.02 950.687 1181.02Z"/><path d="M865.781 1289.08 881.219 1289.08 881.219 1304.52 865.781 1304.52Z"/></g></g></g><path d="M0-1.14583 61.1095-1.14583 61.1095 33.8889 59.9637 32.743 97.0108 32.743 97.0108 35.0347 58.8179 35.0347 58.8179 0 59.9637 1.14583 0 1.14583ZM92.4274 20.1389 119.927 33.8889 92.4274 47.6389Z" fill="#52307F" transform="matrix(1 0 0 -1 1415 1514.89)"/><path d="M1415 1513.85 1476.11 1513.85 1476.11 1592.37 1474.96 1591.23 1512.01 1591.23 1512.01 1593.52 1473.82 1593.52 1473.82 1515 1474.96 1516.15 1415 1516.15ZM1507.43 1578.62 1534.93 1592.37 1507.43 1606.12Z" fill="#52307F"/><path d="M1415 1513.85 1476.11 1513.85 1476.11 1703.64 1474.96 1702.49 1512.01 1702.49 1512.01 1704.78 1473.82 1704.78 1473.82 1515 1474.96 1516.15 1415 1516.15ZM1507.43 1689.89 1534.93 1703.64 1507.43 1717.39Z" fill="#52307F"/><path d="M1415 1513.85 1476.11 1513.85 1476.11 1814.9 1474.96 1813.75 1512.01 1813.75 1512.01 1816.05 1473.82 1816.05 1473.82 1515 1474.96 1516.15 1415 1516.15ZM1507.43 1801.15 1534.93 1814.9 1507.43 1828.65Z" fill="#52307F"/><path d="M1834 1479.85 1895.11 1479.85 1895.11 1508.03 1893.96 1506.89 1931.01 1506.89 1931.01 1509.18 1892.82 1509.18 1892.82 1481 1893.96 1482.15 1834 1482.15ZM1926.43 1494.28 1953.93 1508.03 1926.43 1521.78Z" fill="#52307F"/><path d="M0-1.14583 61.1095-1.14583 61.1095 84.2305 59.9637 83.0846 97.0108 83.0846 97.0108 85.3763 58.8179 85.3763 58.8179 0 59.9637 1.14583 0 1.14583ZM92.4274 70.4805 119.927 84.2305 92.4274 97.9805Z" fill="#52307F" transform="matrix(1 0 0 -1 1834 1592.23)"/><path d="M0-1.14583 61.1097-1.14583 61.1097 195.494 59.9638 194.348 97.0108 194.348 97.0108 196.639 58.818 196.639 58.818 0 59.9638 1.14583 0 1.14583ZM92.4274 181.744 119.927 195.494 92.4274 209.244Z" fill="#52307F" transform="matrix(1 0 0 -1 1834 1703.49)"/><path d="M0-1.14583 61.1097-1.14583 61.1097 306.757 59.9639 305.611 97.0108 305.611 97.0108 307.903 58.8181 307.903 58.8181 0 59.9639 1.14583 0 1.14583ZM92.4274 293.007 119.927 306.757 92.4274 320.507Z" fill="#52307F" transform="matrix(1 0 0 -1 1834 1814.76)"/></g></svg>