<svg width="2900" height="1039" xmlns="http://www.w3.org/2000/svg" xmlns:xlink="http://www.w3.org/1999/xlink" overflow="hidden"><defs><clipPath id="clip0"><rect x="491" y="922" width="2900" height="1039"/></clipPath><clipPath id="clip1"><rect x="522" y="921" width="247" height="249"/></clipPath><clipPath id="clip2"><rect x="522" y="921" width="247" height="249"/></clipPath><clipPath id="clip3"><rect x="522" y="921" width="247" height="249"/></clipPath><clipPath id="clip4"><rect x="3001" y="921" width="249" height="249"/></clipPath><clipPath id="clip5"><rect x="3001" y="921" width="249" height="249"/></clipPath><clipPath id="clip6"><rect x="3001" y="921" width="249" height="249"/></clipPath><clipPath id="clip7"><rect x="2136" y="921" width="247" height="249"/></clipPath><clipPath id="clip8"><rect x="2136" y="921" width="247" height="249"/></clipPath><clipPath id="clip9"><rect x="2136" y="921" width="247" height="249"/></clipPath><clipPath id="clip10"><rect x="1289" y="921" width="247" height="249"/></clipPath><clipPath id="clip11"><rect x="1289" y="921" width="247" height="249"/></clipPath><clipPath id="clip12"><rect x="1289" y="921" width="247" height="249"/></clipPath></defs><g clip-path="url(#clip0)" transform="translate(-491 -922)"><text font-family="Arial,Arial_MSFontService,sans-serif" font-weight="400" font-size="83" transform="matrix(1 0 0 1 558.549 1283)">Data <tspan font-size="83" x="-4.58331" y="99">store</tspan></text><g clip-path="url(#clip1)"><g clip-path="url(#clip2)"><g clip-path="url(#clip3)"><path d="M198.114 203.26 198.114 48.8854C198.114 33.8441 159.673 25.7291 123.5 25.7291 87.3273 25.7291 48.8854 33.8441 48.8854 48.8854L48.8854 203.26C48.8854 218.302 87.3273 226.416 123.5 226.416 159.673 226.416 198.114 218.302 198.114 203.26ZM123.5 30.875C163.259 30.875 192.969 40.3948 192.969 48.8854 192.969 57.376 163.259 66.8958 123.5 66.8958 83.7407 66.8958 54.0312 57.376 54.0312 48.8854 54.0312 40.3948 83.7407 30.875 123.5 30.875ZM54.0312 57.7877C65.6839 67.1016 95.2827 72.0416 123.5 72.0416 151.717 72.0416 181.316 67.1016 192.969 57.7877L192.969 100.344C192.969 108.834 163.259 118.354 123.5 118.354 83.7407 118.354 54.0312 108.834 54.0312 100.344ZM54.0312 109.246C65.6839 118.56 95.2827 123.5 123.5 123.5 151.717 123.5 181.316 118.56 192.969 109.246L192.969 151.802C192.969 160.293 163.259 169.812 123.5 169.812 83.7407 169.812 54.0312 160.293 54.0312 151.802ZM54.0312 203.26 54.0312 160.704C65.6839 170.018 95.2827 174.958 123.5 174.958 151.717 174.958 181.316 170.018 192.969 160.704L192.969 203.26C192.969 211.751 163.259 221.271 123.5 221.271 83.7407 221.271 54.0312 211.751 54.0312 203.26Z" transform="matrix(1 0 0 1 522 922)"/><path d="M180.104 92.6249C180.104 95.4669 177.8 97.7708 174.958 97.7708 172.116 97.7708 169.812 95.4669 169.812 92.6249 169.812 89.783 172.116 87.4791 174.958 87.4791 177.8 87.4791 180.104 89.783 180.104 92.6249Z" transform="matrix(1 0 0 1 522 922)"/><path d="M180.104 144.083C180.104 146.925 177.8 149.229 174.958 149.229 172.116 149.229 169.812 146.925 169.812 144.083 169.812 141.241 172.116 138.937 174.958 138.937 177.8 138.937 180.104 141.241 180.104 144.083Z" transform="matrix(1 0 0 1 522 922)"/><path d="M180.104 195.542C180.104 198.383 177.8 200.687 174.958 200.687 172.116 200.687 169.812 198.383 169.812 195.542 169.812 192.7 172.116 190.396 174.958 190.396 177.8 190.396 180.104 192.7 180.104 195.542Z" transform="matrix(1 0 0 1 522 922)"/></g></g></g><g clip-path="url(#clip4)"><g clip-path="url(#clip5)"><g clip-path="url(#clip6)"><path d="M3197.54 1076.38 3053.46 1076.38 3053.46 988.896 3197.54 988.896ZM3212.98 983.75C3212.98 978.066 3208.37 973.458 3202.69 973.458L3048.31 973.458C3042.63 973.458 3038.02 978.066 3038.02 983.75L3038.02 1091.81 3212.98 1091.81Z"/><path d="M3140.94 1102.1 3140.94 1104.68C3141.03 1106.01 3140.02 1107.16 3138.68 1107.25 3138.58 1107.26 3138.47 1107.26 3138.36 1107.25L3112.64 1107.25C3111.3 1107.34 3110.15 1106.33 3110.06 1105 3110.06 1104.89 3110.06 1104.78 3110.06 1104.68L3110.06 1102.1 3007.15 1102.1 3007.15 1107.25C3007.15 1112.93 3011.75 1117.54 3017.44 1117.54L3233.56 1117.54C3239.25 1117.54 3243.85 1112.93 3243.85 1107.25L3243.85 1102.1Z"/><path d="M3125.5 996.615C3105.61 996.615 3089.48 1012.74 3089.48 1032.64 3089.48 1052.53 3105.61 1068.66 3125.5 1068.66 3145.39 1068.66 3161.52 1052.53 3161.52 1032.64 3161.52 1012.74 3145.39 996.615 3125.5 996.615ZM3128.07 1035.21 3139.88 1035.21C3138.54 1044.08 3134.4 1052.29 3128.07 1058.65ZM3128.07 1030.06 3128.07 1006.6C3134.41 1012.96 3138.54 1021.18 3139.88 1030.06ZM3122.93 1030.06 3111.5 1030.06C3112.78 1021.33 3116.78 1013.23 3122.93 1006.91ZM3122.93 1035.21 3122.93 1058.36C3116.79 1052.03 3112.8 1043.93 3111.5 1035.21ZM3106.33 1030.06 3095.32 1030.06C3096.46 1016.59 3106.41 1005.5 3119.69 1002.92 3112.35 1010.24 3107.65 1019.78 3106.33 1030.06ZM3106.33 1035.21C3107.65 1045.5 3112.37 1055.06 3119.74 1062.38 3106.44 1059.79 3096.47 1048.7 3095.32 1035.21ZM3145.05 1035.21 3155.68 1035.21C3154.55 1048.53 3144.81 1059.54 3131.73 1062.28 3139.06 1054.99 3143.75 1045.46 3145.05 1035.21ZM3145.05 1030.06C3143.74 1019.84 3139.08 1010.33 3131.8 1003.02 3144.85 1005.79 3154.55 1016.77 3155.68 1030.06Z"/></g></g></g><text font-family="Arial,Arial_MSFontService,sans-serif" font-weight="400" font-size="83" transform="matrix(1 0 0 1 2933.24 1283)">Publish on <tspan font-size="83" x="51.1958" y="99">Gov.UK</tspan><tspan font-size="83" x="-864.327" y="0">Markdown</tspan></text><g clip-path="url(#clip7)"><g clip-path="url(#clip8)"><g clip-path="url(#clip9)"><path d="M59.177 36.0208 187.823 36.0208 187.823 210.979 59.177 210.979 59.177 36.0208ZM43.7395 226.416 203.26 226.416 203.26 20.5833 43.7395 20.5833 43.7395 226.416Z" transform="matrix(1 0 0 1 2136 922)"/><path d="M77.1874 51.4583 97.7708 51.4583 97.7708 72.0416 77.1874 72.0416Z" transform="matrix(1 0 0 1 2136 922)"/><path d="M118.354 56.6041 169.812 56.6041 169.812 66.8958 118.354 66.8958Z" transform="matrix(1 0 0 1 2136 922)"/><path d="M77.1874 92.6249 97.7708 92.6249 97.7708 113.208 77.1874 113.208Z" transform="matrix(1 0 0 1 2136 922)"/><path d="M118.354 97.7708 169.812 97.7708 169.812 108.062 118.354 108.062Z" transform="matrix(1 0 0 1 2136 922)"/><path d="M77.1874 133.792 97.7708 133.792 97.7708 154.375 77.1874 154.375Z" transform="matrix(1 0 0 1 2136 922)"/><path d="M118.354 138.937 169.812 138.937 169.812 149.229 118.354 149.229Z" transform="matrix(1 0 0 1 2136 922)"/><path d="M77.1874 174.958 97.7708 174.958 97.7708 195.542 77.1874 195.542Z" transform="matrix(1 0 0 1 2136 922)"/><path d="M118.354 180.104 169.812 180.104 169.812 190.396 118.354 190.396Z" transform="matrix(1 0 0 1 2136 922)"/></g></g></g><text font-family="Arial,Arial_MSFontService,sans-serif" font-weight="400" font-size="83" transform="matrix(1 0 0 1 1219.95 1283)">R / Python</text><g clip-path="url(#clip10)"><g clip-path="url(#clip11)"><g clip-path="url(#clip12)"><path d="M78.1651 181.699 19.9658 123.5 76.8787 66.587 87.7878 77.4962 41.7841 123.5 89.0743 170.79 78.1651 181.699Z" transform="matrix(1 0 0 1 1289 922)"/><path d="M167.548 181.699 156.639 170.79 203.929 123.5 157.926 77.4962 168.835 66.587 225.748 123.5 167.548 181.699Z" transform="matrix(1 0 0 1 1289 922)"/><path d="M136.364 123.5C136.364 130.605 130.605 136.364 123.5 136.364 116.395 136.364 110.635 130.605 110.635 123.5 110.635 116.395 116.395 110.635 123.5 110.635 130.605 110.635 136.364 116.395 136.364 123.5Z" transform="matrix(1 0 0 1 1289 922)"/><path d="M95.1978 123.5C95.1978 130.605 89.4382 136.364 82.3333 136.364 75.2284 136.364 69.4687 130.605 69.4687 123.5 69.4687 116.395 75.2284 110.635 82.3333 110.635 89.4382 110.635 95.1978 116.395 95.1978 123.5Z" transform="matrix(1 0 0 1 1289 922)"/><path d="M177.531 123.5C177.531 130.605 171.771 136.364 164.667 136.364 157.562 136.364 151.802 130.605 151.802 123.5 151.802 116.395 157.562 110.635 164.667 110.635 171.771 110.635 177.531 116.395 177.531 123.5Z" transform="matrix(1 0 0 1 1289 922)"/></g></g></g><text font-family="Arial,Arial_MSFontService,sans-serif" font-weight="400" font-size="83" transform="matrix(1 0 0 1 1083.35 1793)">Quality assurance<tspan font-size="83" x="57.2918" y="99">Version control</tspan></text><path d="M769 1044.85 1266.05 1044.85 1266.05 1047.15 769 1047.15ZM1261.47 1032.25 1288.97 1046 1261.47 1059.75Z" fill="#52307F"/><path d="M1536 1044.85 2112.91 1044.85 2112.91 1047.15 1536 1047.15ZM2108.32 1032.25 2135.82 1046 2108.32 1059.75Z" fill="#52307F"/><path d="M2383 1044.85 2979.85 1044.85 2979.85 1047.15 2383 1047.15ZM2975.27 1032.25 3002.77 1046 2975.27 1059.75Z" fill="#52307F"/><path d="M1034.68 1812.56 646 1812.56 646 1420" stroke="#52307F" stroke-width="2.29167" stroke-miterlimit="8" fill="none" fill-rule="evenodd"/><path d="M0 0 466.732 0 466.732 492.531" stroke="#52307F" stroke-width="2.29167" stroke-miterlimit="8" fill="none" fill-rule="evenodd" transform="matrix(1 0 0 -1 1792 1812.53)"/><path d="M1412.9 1695.9 1412 1320" stroke="#52307F" stroke-width="2.29167" stroke-miterlimit="8" fill="none" fill-rule="evenodd"/></g></svg>